PathFileType	4	(X/Y/Z)	/Users/niels/Desktop/University/Third Semester/Perception and Action/Exam/Gymnastics Motion Tracking/Code for Gym Tracking/Analyzed Data/Webcam_Backflip/id6_3_pure_Sports2D/id6_3_pure_Sports2D_px_person00.trc
DataRate	CameraRate	NumFrames	NumMarkers	Units	OrigDataRate	OrigDataStartFrame	OrigNumFrames
29.8125	29.8125	7	22	m	29.8125	80	160
Frame#	Time	Hip			RHip			RKnee			RAnkle			RBigToe			RSmallToe			RHeel			LHip			LKnee			LAnkle			LBigToe			LSmallToe			LHeel			Neck			Head			Nose			RShoulder			RElbow			RWrist			LShoulder			LElbow			LWrist		
		X1	Y1	Z1	X2	Y2	Z2	X3	Y3	Z3	X4	Y4	Z4	X5	Y5	Z5	X6	Y6	Z6	X7	Y7	Z7	X8	Y8	Z8	X9	Y9	Z9	X10	Y10	Z10	X11	Y11	Z11	X12	Y12	Z12	X13	Y13	Z13	X14	Y14	Z14	X15	Y15	Z15	X16	Y16	Z16	X17	Y17	Z17	X18	Y18	Z18	X19	Y19	Z19	X20	Y20	Z20	X21	Y21	Z21	X22	Y22	Z22
80	2.683438155136268	0.8092250501386019	-0.6094761930972156	0.0	0.8071934918697177	-0.6105565312508577	0.0	0.8121663994410919	-0.7103428947254673	0.0	0.7766607121908992	-0.8017526373081588	0.0	0.798140406606106	-0.8261162844993158	0.0	0.7906749670336743	-0.8267242012473195	0.0	0.7673762073117905	-0.814981090389288	0.0	0.8100543645169217	-0.6081999406979468	0.0	0.8104004421830425	-0.7092132670593742	0.0	0.7773609749983806	-0.8000559846771044	0.0	0.8006381498257334	-0.8253194274252701	0.0	0.7965261274770937	-0.8208360239168188	0.0	0.7631219716470063	-0.8099739515164991	0.0	0.8248053349565688	-0.47005001033546767	0.0	0.8473948344076204	-0.40526677042324843	0.0	0.8556859243702086	-0.44002660850077024	0.0	0.8110558481654107	-0.49002509904671687	0.0	0.7869560174875686	-0.5559122003968118	0.0	0.769630140323489	-0.6170963095587993	0.0	0.820215737869579	-0.4853762797549109	0.0	0.8081040735386189	-0.546454048821696	0.0	0.8111787926560269	-0.6102387067467856	0.0
81	2.716981132075471	0.8080860101800555	-0.6355493085887748	0.0	0.8057940278719785	-0.636828866814684	0.0	0.8112247738856914	-0.7348498954308794	0.0	0.7717660886815756	-0.8225110898228968	0.0	0.7960319259281475	-0.8431324283255832	0.0	0.7887394127759307	-0.8434893942530938	0.0	0.7618389865959493	-0.8338044806078099	0.0	0.8096046969833667	-0.6347206481225081	0.0	0.8102588641465981	-0.7337233081420901	0.0	0.7733103015988717	-0.8207736734514794	0.0	0.7981702473500345	-0.8422473929783014	0.0	0.7927161439912189	-0.8377137840445354	0.0	0.7590318887855827	-0.8289008422238325	0.0	0.8236695212373476	-0.4945949560150499	0.0	0.844574748642309	-0.43046359715338955	0.0	0.8551941477245586	-0.46449011689370695	0.0	0.8090845701506191	-0.5155583866121674	0.0	0.7868385814719918	-0.5824445417555272	0.0	0.7717944272761466	-0.6459373702033435	0.0	0.8187487440594242	-0.5102962787259226	0.0	0.803739646496801	-0.5729459219327965	0.0	0.8023912226093368	-0.6382577382277259	0.0
82	2.7505241090146746	0.8077625171513603	-0.6540906403167716	0.0	0.8053464026679007	-0.6553884358226454	0.0	0.8117204534472199	-0.7520860040406684	0.0	0.7685751706654502	-0.8360884937910094	0.0	0.7950971163065936	-0.8546247458632414	0.0	0.7876460738420357	-0.854661750501206	0.0	0.7578245301225461	-0.8455353888378367	0.0	0.80976666509475	-0.6535950956917234	0.0	0.811167016694289	-0.7509065427183519	0.0	0.7706350550175146	-0.8341168624850999	0.0	0.79670473519083	-0.8534296842838749	0.0	0.7902265074594733	-0.8488788928548356	0.0	0.7564186812174538	-0.8408371220470803	0.0	0.8230730741186959	-0.5122523913522935	0.0	0.8429081616435957	-0.44834236501125346	0.0	0.8553330824751447	-0.4819934472556086	0.0	0.8079635188808848	-0.5336681762713676	0.0	0.7876766300983041	-0.6011590001033144	0.0	0.7759307112176574	-0.6660838982013403	0.0	0.8182912254987976	-0.5283193841451999	0.0	0.8020861551057032	-0.5923450313513428	0.0	0.7993214425993702	-0.6576378176223977	0.0
83	2.784067085953878	0.8087556752977544	-0.6632369204397819	0.0	0.8062202795140905	-0.6643803736788265	0.0	0.814020746850321	-0.7602825555773299	0.0	0.7671995379826329	-0.8409439019482605	0.0	0.7945054018897322	-0.8592943301337364	0.0	0.7865813691126815	-0.8589178012332104	0.0	0.7555426823013904	-0.8490530542273508	0.0	0.8110218896595501	-0.6629114034928975	0.0	0.8135567470795203	-0.7589852900628754	0.0	0.7694382471343324	-0.8387590682858872	0.0	0.7955573434955733	-0.85776665297795	0.0	0.7888474437292575	-0.8533425817015364	0.0	0.7552604278621003	-0.8446322808676173	0.0	0.8231996817213028	-0.5212979973950913	0.0	0.8426777501135885	-0.45710790108540106	0.0	0.8562771940506082	-0.49060015046769045	0.0	0.8080346872031148	-0.5426730978353175	0.0	0.7894205596278037	-0.6103312007433463	0.0	0.7811063319840115	-0.6760800362390943	0.0	0.8188424468811277	-0.5375763287393772	0.0	0.8026939138881876	-0.6024176442577818	0.0	0.8007513031724922	-0.6668139231675173	0.0
84	2.817610062893081	0.8114027528313318	-0.6624094214009607	0.0	0.8086265140301814	-0.6632704276593581	0.0	0.8184264118859769	-0.7588739407284092	0.0	0.7675839007455015	-0.8364744181926804	0.0	0.793711004604929	-0.8564537851292163	0.0	0.7851332271607177	-0.8555611998626964	0.0	0.7550199129449222	-0.8440237960613821	0.0	0.8137439120590236	-0.6620862754108354	0.0	0.8178201423031797	-0.7574081858317904	0.0	0.7697220327772221	-0.8343140195858842	0.0	0.7943481482665027	-0.8547843162379083	0.0	0.7882746189206901	-0.8506240224794905	0.0	0.75545276127246	-0.839898032519797	0.0	0.8242459668433347	-0.52109757155994	0.0	0.8440686661386408	-0.45611546641485573	0.0	0.8581698617859528	-0.4896317276276146	0.0	0.8095047361726323	-0.5420533994877533	0.0	0.7921253142758404	-0.6095064822823589	0.0	0.7868415373123967	-0.6755517956030305	0.0	0.8203966495644817	-0.5373527955387633	0.0	0.8050816783673469	-0.6023496213549778	0.0	0.8052138581682632	-0.6653328050436556	0.0
85	2.8511530398322846	0.81576453307376	-0.6524281909581164	0.0	0.8125902358648542	-0.6529572815908378	0.0	0.8250755991145693	-0.7485939593077611	0.0	0.7696962385002245	-0.8232346945874892	0.0	0.793031732441771	-0.8463866522836024	0.0	0.783783538111267	-0.8448919699713905	0.0	0.7562699576673315	-0.8310036526905482	0.0	0.8180821051254568	-0.651974203188819	0.0	0.8241295298310792	-0.7469468211480189	0.0	0.7715748400662336	-0.8214810320981831	0.0	0.793506780577564	-0.8449133937062371	0.0	0.7886254115613407	-0.8410306282215937	0.0	0.7569927385471781	-0.8272239962445525	0.0	0.8264096843383105	-0.5122652940561419	0.0	0.8471046979735207	-0.4460724229837977	0.0	0.8610490316536038	-0.47983311653837674	0.0	0.8123955017283659	-0.5325588259091301	0.0	0.7958006839168615	-0.5995509065184795	0.0	0.7930536943409182	-0.6653444174264344	0.0	0.8230890496342762	-0.5282876637612985	0.0	0.8090788023774442	-0.5929388946113665	0.0	0.8118669167618159	-0.6541190624750464	0.0
86	2.884696016771488	0.8215924766049989	-0.6352743244911413	0.0	0.8179738638698567	-0.6355619947156484	0.0	0.8338603682147899	-0.7313146011332633	0.0	0.7736249299740353	-0.8030479945701559	0.0	0.7936393444603548	-0.8305238900448242	0.0	0.7838172733205543	-0.8283922764108113	0.0	0.759392799046175	-0.8115373009979038	0.0	0.8238705877204192	-0.6346628553462457	0.0	0.832310748264373	-0.7295190564240477	0.0	0.7752104855083519	-0.8021283790150981	0.0	0.7942478458073104	-0.8295756679803981	0.0	0.7906064577340843	-0.8258533288632592	0.0	0.7600757275932577	-0.8083366805452744	0.0	0.8298370229108689	-0.4965154121233909	0.0	0.851656871304956	-0.42891444188512096	0.0	0.864835336959258	-0.46314768092311454	0.0	0.8165865049901347	-0.5160378358765756	0.0	0.8003663422059807	-0.5824394897687163	0.0	0.7998906289843675	-0.6474843074706534	0.0	0.827086151895967	-0.512196375980142	0.0	0.8147757700550695	-0.576325168225922	0.0	0.8205803520442296	-0.6354333173513145	0.0
